<svg width="67" height="20" viewBox="0 0 67 20" fill="none" xmlns="http://www.w3.org/2000/svg"><path d="M67 14.91c-.197.83-.16.669-.94.673h-5.879c-.66 0-.875-.211-.875-.868V4.812c0-.673.198-.875.861-.875h6.222c.385 0 .475.045.497.42.026.35.026.7 0 1.05-.017.252-.157.373-.435.37h-4.762v2.855c.1 0 .2.011.3.011h3.805c.347 0 .447.067.476.419.029.32.029.643 0 .963-.031.352-.13.421-.476.421H61.68v3.292h4.652c.506 0 .537.028.62.525a.78.78 0 0 0 .048.134v.513zM19.441 9.887a32.94 32.94 0 0 1-.63 6.343 3.543 3.543 0 0 1-2.878 2.671c-2.61.472-5.268.638-7.917.495a44.677 44.677 0 0 1-4.607-.533C1.832 18.601.793 17.405.52 15.771a36.537 36.537 0 0 1-.513-6.787c.035-1.9.23-3.794.582-5.66A3.587 3.587 0 0 1 3.53.54a33.984 33.984 0 0 1 7.804-.495c1.553.097 3.101.271 4.637.523 1.613.255 2.664 1.427 2.95 3.132.34 2.045.514 4.114.52 6.186zM2.051 9.65c-.016 1.92.13 3.838.44 5.732.171.951.547 1.401 1.494 1.537 1.22.173 2.447.328 3.676.402 2.543.172 5.096.054 7.611-.352 1.07-.181 1.489-.543 1.665-1.549.172-.944.289-1.896.35-2.854.07-1.538.116-3.092.052-4.618-.057-1.354-.238-2.702-.435-4.043-.122-.864-.557-1.273-1.427-1.387-1.287-.169-2.571-.335-3.858-.41a31.726 31.726 0 0 0-7.61.398c-.952.178-1.347.59-1.52 1.55A33.372 33.372 0 0 0 2.05 9.65zm51.319.891h-1.886c-.45 0-.559-.09-.573-.542-.006-.303.01-.606.047-.906a.313.313 0 0 1 .362-.285H55a.592.592 0 0 1 .638.646c.014.476 0 .97 0 1.456v3.168c0 .62-.098.77-.673.963-1.646.554-3.33.74-5.026.328-2.111-.511-3.503-2.04-3.833-4.185a7.5 7.5 0 0 1 .214-3.525c.713-2.188 2.271-3.377 4.519-3.7a7.342 7.342 0 0 1 3.629.337c1.15.423 1.272.602 1.189 1.92 0 .037 0 .075-.014.113-.062.438-.203.512-.585.293a6.034 6.034 0 0 0-3.092-.868c-1.843.016-3.197 1.132-3.518 2.947a5.232 5.232 0 0 0 .26 2.97 3.378 3.378 0 0 0 4.44 1.762c.093-.04.21-.159.212-.238.026-.872.009-1.736.009-2.654zM42.594 15.61c-.295-.017-.587-.027-.882-.048a.451.451 0 0 1-.424-.36c-.223-.696-.475-1.383-.69-2.08a.264.264 0 0 0-.304-.217h-3.907a.259.259 0 0 0-.295.224c-.21.67-.443 1.334-.645 2.005a.535.535 0 0 1-.528.433c-.475.016-.932.028-1.396 0-.342-.02-.447-.188-.352-.53.11-.393.238-.778.383-1.164 1.083-3.12 2.167-6.24 3.253-9.36.157-.455.272-.552.74-.56h1.824a.713.713 0 0 1 .73.545 2064.71 2064.71 0 0 0 3.518 10.113c.052.142.096.287.13.435.082.359-.014.5-.387.528-.254.021-.514 0-.77 0l.002.036zm-5.898-4.52h3.28L38.36 6.24c-.576 1.548-1.09 3.092-1.601 4.621-.021.069-.033.13-.062.236l-.002-.005zm-11.071.448v3.605a.353.353 0 0 1-.302.407 4.163 4.163 0 0 1-1.753 0 .337.337 0 0 1-.297-.38V4.728a.714.714 0 0 1 .785-.787c1.331 0 2.663-.031 3.993.033.614.036 1.22.172 1.79.402 1.211.475 1.841 1.443 1.917 2.728a5.469 5.469 0 0 1-.137 1.607c-.402 1.627-1.568 2.426-3.142 2.704-.48.07-.962.109-1.446.115-.455.021-.911.007-1.408.007zm.014-1.817h1.624c1.242 0 1.922-.628 2.048-1.86.1-.973-.335-1.772-1.144-1.993-.808-.221-1.665-.09-2.53-.119l.002 3.972z" fill="#222F41"/><path d="M8.135 9.766C7.58 9.212 7.085 8.724 6.6 8.232c-.542-.557-1.104-1.106-1.63-1.674-.475-.526-.475-1.14 0-1.603a1.144 1.144 0 0 1 1.665-.022c.973.937 1.917 1.903 2.869 2.854.077.093.146.191.207.295.138-.13.214-.2.285-.273l2.742-2.747c.33-.33.714-.554 1.19-.455a1.156 1.156 0 0 1 .649 1.95c-.53.583-1.102 1.13-1.665 1.69-.49.49-.985.974-1.49 1.471.098.103.167.179.239.253l2.882 2.887a1.21 1.21 0 0 1 .076 1.648 1.145 1.145 0 0 1-1.679.078c-.116-.097-.223-.207-.33-.313-.88-.88-1.756-1.761-2.626-2.643a2.141 2.141 0 0 1-.164-.204c-.518.502-1.006.968-1.486 1.439-.59.58-1.159 1.189-1.763 1.743a1.13 1.13 0 0 1-1.634-.067 1.189 1.189 0 0 1 .038-1.665c.952-.965 1.91-1.93 2.876-2.892.09-.078.184-.15.283-.216z" fill="#222F41"/></svg>